<svg width="80" height="80" viewBox="0 0 80 80" fill="none" xmlns="http://www.w3.org/2000/svg">
<circle cx="40" cy="40" r="40" fill="black"/>
<path fill-rule="evenodd" clip-rule="evenodd" d="M26.4221 25V36.464C28.1675 34.383 30.2591 33.3346 32.6862 33.3346C33.9357 33.3346 35.0563 33.5721 36.0582 34.0469C37.0653 34.5169 37.8188 35.1213 38.3251 35.8545C38.8364 36.5931 39.1825 37.4036 39.3679 38.297C39.5544 39.1856 39.6473 40.5693 39.6473 42.4437V54.7029H34.225V43.6624C34.225 41.4731 34.1266 40.0837 33.9203 39.4949C33.7137 38.9014 33.352 38.4363 32.8307 38.0904C32.3089 37.7394 31.6584 37.5635 30.8736 37.5635C29.9751 37.5635 29.1693 37.7908 28.4673 38.2351C27.755 38.6844 27.2384 39.3557 26.913 40.2542C26.5822 41.1529 26.4168 42.4799 26.4223 44.2357L26.4168 54.703H21V25H26.4221ZM47.7753 25V36.464C49.5202 34.383 51.612 33.3346 54.0387 33.3346C55.2834 33.3346 56.4088 33.5721 57.4163 34.0469C58.4178 34.5169 59.1718 35.1213 59.6776 35.8545C60.1889 36.5931 60.535 37.4036 60.7209 38.297C60.9069 39.1856 61 40.5693 61 42.4437V54.7029H55.5827V43.6624C55.5827 41.4731 55.4798 40.0837 55.2729 39.4949C55.0662 38.9014 54.7051 38.4363 54.1832 38.0904C53.6667 37.7394 53.0108 37.5635 52.2261 37.5635C51.3274 37.5635 50.522 37.7908 49.8196 38.2351C49.1124 38.6844 48.596 39.3557 48.2652 40.2542C47.9398 41.1529 47.775 42.4799 47.775 44.2357V54.703H42.3578V25H47.7752H47.7753Z" fill="white"/>
</svg>
