<svg width="80" height="80" viewBox="0 0 80 80" fill="none" xmlns="http://www.w3.org/2000/svg">
<circle cx="40" cy="40" r="40" fill="black"/>
<path fill-rule="evenodd" clip-rule="evenodd" d="M62 29.5484C62 27.5889 60.4111 26 58.4516 26C50.7091 26 29.2904 26 21.5484 26C19.5884 26 18 27.5889 18 29.5484C18 34.6084 18 45.1283 18 50.1878C18 52.1477 19.5884 53.7361 21.5484 53.7361C29.2904 53.7361 50.7091 53.7361 58.4516 53.7361C60.4111 53.7361 62 52.1477 62 50.1878V29.5484ZM45.3098 40.6461L42.2381 43.1492C40.9348 44.2111 39.0648 44.2111 37.7619 43.1492L34.6897 40.6461L20.8233 52.1903C21.0497 52.2724 21.2936 52.3169 21.5484 52.3169C29.2904 52.3169 50.7091 52.3169 58.4512 52.3169C58.7059 52.3169 58.9503 52.2724 59.1762 52.1903L45.3098 40.6461ZM60.2762 28.4513L46.4313 39.7329L60.2864 51.2677C60.4732 50.9514 60.5803 50.5823 60.5803 50.1878V29.5484C60.5803 29.147 60.4693 28.772 60.2762 28.4513ZM19.7233 28.4513C19.5302 28.772 19.4192 29.147 19.4192 29.5484C19.4192 34.6084 19.4192 45.1283 19.4192 50.1878C19.4192 50.5823 19.5263 50.9514 19.7131 51.2677L33.5687 39.7329L19.7233 28.4513ZM59.1512 27.5371C58.9322 27.4608 58.6966 27.4197 58.4516 27.4197C50.7091 27.4197 29.2904 27.4197 21.5484 27.4197C21.3029 27.4197 21.0673 27.4608 20.8483 27.5371L38.658 42.0492C39.4392 42.6853 40.5603 42.6853 41.3415 42.0492L59.1512 27.5371Z" fill="white" stroke="white"/>
</svg>
