<svg width="80" height="80" viewBox="0 0 80 80" fill="none" xmlns="http://www.w3.org/2000/svg">
<circle cx="40" cy="40" r="40" fill="black"/>
<path fill-rule="evenodd" clip-rule="evenodd" d="M31.562 19.9053C32.7726 22.3265 34.1562 24.9207 35.7126 27.1689C36.7503 28.8984 36.7503 29.4172 36.0585 30.9737C35.3668 32.5302 32.5997 34.2596 31.3891 35.6432C31.562 38.5832 41.2468 48.268 44.1869 48.441C45.5704 47.2304 47.2998 44.6362 48.8563 43.9444C50.4128 43.2527 51.1046 43.0797 52.6611 44.1174C54.9093 45.6739 57.5035 47.0574 59.9247 48.441C60.9623 48.9598 61.4812 49.9974 61.8271 51.0351L62 51.208V51.5539C62 58.2987 54.5634 62.6223 48.5104 61.7576C35.0209 60.0281 19.8019 44.8091 18.0724 31.3196C17.3807 25.2666 21.7042 17.83 28.449 18.003H28.622H28.9679C30.0055 18.3488 31.0432 19.0406 31.562 19.9053ZM28.2761 20.0783C22.9148 19.9053 19.456 26.1313 20.1478 31.1466C21.7042 43.7715 36.4044 58.1258 48.8563 59.6823C53.6987 60.374 59.9247 56.9152 59.9247 51.5539C59.5788 50.5163 59.06 50.1704 59.06 50.1704C59.06 50.1704 52.6611 46.7115 51.4505 45.8468C50.4128 45.155 50.4128 45.5009 49.721 45.8468C49.0293 46.0198 46.0892 49.8245 45.2245 50.3433C41.7657 52.4186 27.4114 38.0644 29.4867 34.6055C30.0055 33.9137 33.8103 30.8008 34.1562 30.2819C34.3291 29.5902 34.675 29.5902 33.9832 28.3795C33.2914 27.1689 29.6596 20.943 29.6596 20.943C29.6596 20.943 29.4867 20.4242 28.2761 20.0783Z" fill="white" stroke="white" stroke-width="0.7"/>
</svg>
