<svg width="80" height="80" viewBox="0 0 80 80" fill="none" xmlns="http://www.w3.org/2000/svg">
<circle cx="40" cy="40" r="40" fill="black"/>
<path d="M57.452 30.4667H45.5354V27H57.452V30.4667ZM60.3903 47.8C59.6378 50.0481 56.9362 53 51.7065 53C46.4734 53 42.2346 50.0031 42.2346 43.1633C42.2346 36.386 46.1926 32.902 51.5397 32.902C56.7864 32.902 59.9902 35.9908 60.6899 40.5737C60.8227 41.4508 60.8754 42.6329 60.8516 44.2831H47.1867C47.408 49.8488 53.1161 50.0239 54.9972 47.8H60.3903ZM47.3059 40.8667H55.7581C55.5794 38.1852 53.8242 37.0204 51.5414 37.0204C49.0457 37.0204 47.6651 38.3516 47.3059 40.8667ZM31.0075 52.9792H20V27.0364H31.8365C41.1587 27.1768 41.3357 36.4727 36.467 39.0068C42.3588 41.1908 42.5563 52.9792 31.0075 52.9792V52.9792ZM25.1071 37.4H31.2084C35.4779 37.4 36.1554 32.2 30.6772 32.2H25.1071V37.4V37.4ZM30.8798 42.6H25.1071V47.8277H30.7947C35.9954 47.8277 35.6771 42.6 30.8798 42.6V42.6Z" fill="white"/>
</svg>
