<svg width="100" height="100" viewBox="0 0 100 100" fill="none" xmlns="http://www.w3.org/2000/svg">
<circle cx="50" cy="50" r="50" fill="black"/>
<path d="M44.96 49.64H40.16V48.68H49.04V52.28C49.04 54.456 48.752 56.376 48.176 58.04C47.632 59.704 46.896 61.112 45.968 62.264C45.072 63.384 44.032 64.248 42.848 64.856C41.664 65.432 40.448 65.72 39.2 65.72C37.888 65.72 36.576 65.368 35.264 64.664C33.952 63.928 32.768 62.84 31.712 61.4C30.656 59.928 29.792 58.104 29.12 55.928C28.48 53.72 28.16 51.144 28.16 48.2C28.16 45.256 28.48 42.696 29.12 40.52C29.792 38.312 30.656 36.488 31.712 35.048C32.8 33.576 34.016 32.488 35.36 31.784C36.704 31.048 38.064 30.68 39.44 30.68C40.208 30.68 40.896 30.808 41.504 31.064C42.144 31.32 42.688 31.592 43.136 31.88C43.648 32.232 44.096 32.632 44.48 33.08C44.736 32.6 45.072 32.152 45.488 31.736C45.936 31.32 46.4 31.048 46.88 30.92H47.6C47.536 31.4 47.488 31.88 47.456 32.36C47.424 32.808 47.392 33.288 47.36 33.8C47.36 34.28 47.36 34.76 47.36 35.24C47.36 35.784 47.36 36.328 47.36 36.872C47.392 37.384 47.424 37.864 47.456 38.312C47.488 38.824 47.536 39.32 47.6 39.8H46.88C46.144 37.144 45.152 35.128 43.904 33.752C42.688 32.344 41.36 31.64 39.92 31.64C39.024 31.64 38.144 31.896 37.28 32.408C36.416 32.92 35.648 33.816 34.976 35.096C34.304 36.344 33.76 38.04 33.344 40.184C32.928 42.296 32.72 44.968 32.72 48.2C32.72 51.496 32.912 54.232 33.296 56.408C33.712 58.552 34.24 60.264 34.88 61.544C35.52 62.824 36.208 63.72 36.944 64.232C37.712 64.744 38.464 65 39.2 65C39.904 65 40.608 64.808 41.312 64.424C42.016 64.008 42.624 63.32 43.136 62.36C43.68 61.368 44.112 60.056 44.432 58.424C44.784 56.792 44.96 54.744 44.96 52.28V49.64ZM60.3388 64.04H68.9788C68.9788 62.696 69.2508 61.448 69.7948 60.296C70.3388 59.144 71.0268 58.152 71.8588 57.32H72.3388C72.2748 57.736 72.2268 58.168 72.1948 58.616C72.1628 59 72.1308 59.416 72.0988 59.864C72.0988 60.312 72.0988 60.744 72.0988 61.16C72.0988 61.768 72.0988 62.312 72.0988 62.792C72.1308 63.24 72.1628 63.64 72.1948 63.992C72.2268 64.376 72.2748 64.712 72.3388 65H53.3788V64.52L56.2588 63.8V32.6L53.3788 31.88V31.4H63.2188V31.88L60.3388 32.6V64.04Z" fill="white"/>
</svg>
