<svg width="112" height="112" viewBox="0 0 112 112" fill="none" xmlns="http://www.w3.org/2000/svg">
<mask id="mask0" mask-type="alpha" maskUnits="userSpaceOnUse" x="0" y="0" width="112" height="112">
<circle cx="56" cy="56" r="56" fill="#5E62D1"/>
</mask>
<g mask="url(#mask0)">
<rect x="-10" y="-13" width="253" height="362" fill="#5E62D1"/>
<path d="M57.8491 30.9464C56.3732 26.6084 54.9463 22.246 53.4296 17.8999C52.6142 15.5189 51.3829 12.616 48.2762 13.2765C45.3897 13.8962 44.3704 17.4677 43.5143 19.8895C42.1892 23.7669 41.4526 27.821 41.329 31.9167C41.2311 34.1998 43.7181 34.8521 45.2185 33.8981C45.3271 33.9047 45.436 33.9047 45.5446 33.8981L55.4436 34.0531C55.8207 34.0464 56.1914 33.9551 56.5284 33.7861C56.8655 33.6171 57.1603 33.3745 57.3912 33.0764C57.622 32.7782 57.783 32.4321 57.8622 32.0634C57.9415 31.6948 57.937 31.313 57.8491 30.9464Z" fill="#1D1E40"/>
<path d="M76.7335 31.1829C75.9225 24.9029 74.4325 18.7295 72.2895 12.771C71.4007 10.3248 68.4164 10.496 67.4705 12.771L60.3683 29.7885C59.4224 32.0554 61.9991 33.3437 63.8501 32.5039C63.9654 33.0143 64.2662 33.4637 64.694 33.765C65.1219 34.0663 65.6464 34.1981 66.1658 34.1347L74.2383 33.6373C75.4451 33.6047 76.921 32.5854 76.7335 31.1829Z" fill="#1D1E40"/>
<path d="M94.4207 30.3104C94.0782 27.8642 93.8581 24.6596 91.5994 23.1756C89.6424 21.8791 87.5224 22.6782 86.0383 24.3009C83.7552 26.8368 81.9613 30.0087 79.9799 32.7974C79.7811 33.0531 79.6431 33.3506 79.5763 33.6675C79.5094 33.9844 79.5155 34.3124 79.5941 34.6266C79.6726 34.9408 79.8216 35.233 80.0297 35.4812C80.2378 35.7293 80.4996 35.9269 80.7953 36.059C80.891 36.2368 81.0058 36.4035 81.1377 36.5564C83.9001 39.7587 87.6146 41.9931 91.738 42.9329C92.1116 43.0284 92.502 43.0374 92.8796 42.9593C93.2572 42.8812 93.612 42.718 93.9171 42.4821C94.2221 42.2463 94.4693 41.9439 94.64 41.5982C94.8106 41.2524 94.9001 40.8723 94.9018 40.4867C95.0503 37.087 94.8893 33.6809 94.4207 30.3104V30.3104Z" fill="#1D1E40"/>
<path d="M109.374 42.9978C105.249 43.1875 101.22 44.3022 97.5834 46.2595C97.1055 46.2502 96.6353 46.3812 96.231 46.6363C95.8267 46.8913 95.5059 47.2593 95.3084 47.6946C95.0099 48.0145 94.7952 48.4033 94.6835 48.8263C94.5718 49.2494 94.5666 49.6935 94.6683 50.119C94.7701 50.5446 94.9756 50.9383 95.2666 51.2651C95.5576 51.5919 95.9249 51.8415 96.3359 51.9918C97.5351 55.5701 98.411 59.2487 98.9533 62.9835C99.2224 64.867 101.954 65.3481 103.128 64.0842C107.794 59.1386 110.821 52.8742 111.796 46.1453C111.992 44.702 111.168 42.9326 109.374 42.9978Z" fill="#1D1E40"/>
<path d="M118.067 71.9611C115.576 70.5428 112.816 69.6613 109.964 69.3734C107.112 69.0855 104.231 69.3976 101.506 70.2896C99.0602 71.105 99.4189 74.3666 101.245 75.0842C101.313 77.6891 101.52 80.2885 101.865 82.8713C102.224 85.0729 103.708 86.6221 106.097 86.1818C108.486 85.7415 110.99 83.6215 112.743 82.17C115.122 80.2084 117.214 77.9219 118.956 75.3777C119.285 74.8053 119.376 74.1267 119.21 73.4877C119.044 72.8488 118.633 72.3006 118.067 71.9611V71.9611Z" fill="#1D1E40"/>
<path d="M174.941 113.987C168.655 135.326 151.784 153.257 130.38 159.308C108.975 165.358 80.1342 164.469 63.6141 149.572C47.094 134.674 43.2779 103.77 47.0858 81.8929C37.7576 83.9477 27.5161 83.2791 19.3049 78.4682C11.0938 73.6573 5.20657 64.2801 6.08721 54.7644C6.96785 45.2486 14.1026 37.3554 22.5747 33.1316C31.0468 28.9078 40.7256 27.8315 50.1844 27.3504C66.4354 26.535 84.8228 28.1658 95.3578 40.5355C103.3 49.8882 104.662 63.0407 104.914 75.3126C105.167 87.5845 104.784 100.403 110.206 111.411C113.138 117.359 117.62 122.408 123.179 126.024C128.738 129.641 135.169 131.692 141.796 131.961C148.422 132.231 154.999 130.709 160.833 127.556C166.668 124.403 171.544 119.735 174.95 114.044L174.941 113.987Z" fill="#5FECC8"/>
<path d="M73.9864 58.0095C80.0525 58.0095 84.97 53.092 84.97 47.026C84.97 40.96 80.0525 36.0425 73.9864 36.0425C67.9204 36.0425 63.0029 40.96 63.0029 47.026C63.0029 53.092 67.9204 58.0095 73.9864 58.0095Z" fill="white"/>
<path d="M76.2042 53.1333C82.385 53.1333 82.3931 43.5278 76.2042 43.5278C70.0153 43.5278 70.0153 53.1333 76.2042 53.1333Z" fill="#1D1E40"/>
<path d="M47.632 54.593C53.698 54.593 58.6155 49.6755 58.6155 43.6095C58.6155 37.5435 53.698 32.626 47.632 32.626C41.5659 32.626 36.6484 37.5435 36.6484 43.6095C36.6484 49.6755 41.5659 54.593 47.632 54.593Z" fill="white"/>
<path d="M49.8497 49.7168C56.0305 49.7168 56.0386 40.1113 49.8497 40.1113C43.6608 40.1113 43.6608 49.7168 49.8497 49.7168Z" fill="#1D1E40"/>
<path d="M47.0118 61.1981C46.8879 61.1265 46.7472 61.0889 46.6041 61.0889C46.461 61.0889 46.3204 61.1265 46.1964 61.1981C46.0409 61.2661 45.8933 61.3509 45.7561 61.4509L45.1446 61.8667C44.8918 62.0461 44.6064 62.1358 44.3292 62.307C44.0519 62.4783 43.9948 62.5272 43.8236 62.6251C43.261 62.9268 42.7147 63.2448 42.1439 63.5139L41.4018 63.8808C41.1572 64.0031 40.9289 64.1743 40.6761 64.2966C40.4233 64.419 40.2847 64.4271 40.1054 64.5168C39.5753 64.8022 38.9638 64.949 38.4745 65.2588C38.0286 65.4666 37.5712 65.649 37.1046 65.8051L36.3871 66.0579C36.1914 66.1313 36.0283 66.221 35.8326 66.2862L35.4575 66.3922C35.0009 66.5146 34.5117 66.5961 34.0632 66.7347C33.6147 66.8733 32.995 67.0201 32.4324 67.1587L30.6956 67.5583H30.5488H30.3449H30.2797C30.1003 67.5583 29.9128 67.6153 29.7334 67.6398L28.6081 67.811L28.233 67.86L27.6378 67.9089L26.8224 67.9904C26.5859 67.9904 26.3494 68.072 26.113 68.1127H25.7297C25.6132 68.1001 25.4956 68.1001 25.3791 68.1127C24.7838 68.1943 24.1642 68.1127 23.5934 68.2432C23.0226 68.3737 22.6067 68.2432 22.1175 68.2432H21.3592C21.1582 68.2544 20.9567 68.2544 20.7558 68.2432H20.3725C19.8996 68.2024 19.4103 68.1046 18.9456 68.0801C18.4808 68.0557 17.8529 67.9415 17.3147 67.8926C16.7766 67.8437 16.1406 67.7295 15.5535 67.6316C15.4152 67.6059 15.279 67.5705 15.1458 67.5256C14.9745 67.4767 14.787 67.4523 14.6076 67.4115C14.2407 67.33 13.8574 67.2729 13.4986 67.1587C12.8056 66.963 12.0635 66.9141 11.3949 66.6613C11.0275 66.498 10.6487 66.3617 10.2615 66.2536C10.1242 66.2036 9.9821 66.1681 9.83746 66.1476C9.68014 66.1332 9.52185 66.1332 9.36453 66.1476C9.07914 66.1476 8.90789 66.3188 8.86712 66.5064C8.85708 66.7185 8.93022 66.9263 9.07098 67.0853C9.23509 67.2934 9.46044 67.4445 9.71515 67.5175L10.1392 67.6724C10.392 67.7703 10.6447 67.8518 10.8975 67.9415C11.1503 68.0312 11.3949 68.0394 11.6395 68.1209C12.3686 68.34 13.109 68.5196 13.8574 68.6591C14.1265 68.7243 14.3874 68.8058 14.6728 68.8548C14.9582 68.9037 15.2844 68.9608 15.6105 68.9934H15.7084H15.7981C16.1427 69.1127 16.5022 69.184 16.8663 69.2054C17.274 69.2706 17.6817 69.3277 18.0812 69.3685C18.9374 69.4745 19.8017 69.5071 20.6661 69.556C20.8373 69.556 21.0085 69.556 21.1798 69.556C21.6119 69.556 22.0523 69.556 22.4926 69.556C22.6964 69.556 22.941 69.556 23.1449 69.556C23.3314 69.5302 23.5193 69.5166 23.7075 69.5152C24.0255 69.5152 24.3354 69.5152 24.6616 69.5152C25.2894 69.5152 25.9173 69.4663 26.537 69.3929C27.1567 69.3195 27.7845 69.2543 28.4124 69.2054C28.621 69.1966 28.8284 69.1693 29.0321 69.1239C29.2034 69.1239 29.3665 69.0342 29.5295 69.0015C29.6926 68.9689 29.9372 68.9526 30.1411 68.9363C30.3449 68.92 30.6222 68.8711 30.8586 68.8385C31.0951 68.8058 31.3642 68.7569 31.617 68.6917L31.886 68.6183C32.1144 68.5775 32.3508 68.5123 32.5547 68.4715C32.9542 68.39 33.3701 68.3003 33.7533 68.2024C34.5687 67.9497 35.3841 67.7213 36.1996 67.4523C36.3626 67.387 36.5257 67.3381 36.6888 67.2892C37.1047 67.1587 37.5042 67.0201 37.9282 66.8733C38.1239 66.7999 38.3522 66.7347 38.5398 66.6532C38.7273 66.5716 38.8415 66.4656 39.0371 66.3922C39.2328 66.3189 39.6324 66.1721 39.926 66.0498C41.1001 65.585 42.1683 64.9408 43.318 64.4189C43.5056 64.3211 43.685 64.2151 43.8562 64.101C44.0274 63.9868 44.1335 63.8971 44.2802 63.8074C44.427 63.7177 44.6472 63.6199 44.8347 63.5302C45.0222 63.4405 45.2587 63.3019 45.4707 63.1795L46.1149 62.7474C46.2889 62.6248 46.4551 62.4914 46.6123 62.3478C46.7784 62.2399 46.9365 62.12 47.0852 61.9891C47.1503 61.8983 47.1974 61.7959 47.2238 61.6874C47.2616 61.607 47.2812 61.5193 47.2812 61.4305C47.2812 61.3417 47.2616 61.254 47.2238 61.1736C47.2157 61.2715 47.126 61.247 47.0118 61.1981Z" fill="#033454"/>
</g>
</svg>
