<svg width="100" height="100" viewBox="0 0 100 100" fill="none" xmlns="http://www.w3.org/2000/svg">
<circle cx="50" cy="50" r="50" fill="black"/>
<path d="M43.28 49.52H36.88V48.24H48.72V53.04C48.72 55.9413 48.336 58.5013 47.568 60.72C46.8427 62.9387 45.8613 64.816 44.624 66.352C43.4293 67.8453 42.0427 68.9973 40.464 69.808C38.8853 70.576 37.264 70.96 35.6 70.96C33.8507 70.96 32.1013 70.4907 30.352 69.552C28.6027 68.5707 27.024 67.12 25.616 65.2C24.208 63.2373 23.056 60.8053 22.16 57.904C21.3067 54.96 20.88 51.5253 20.88 47.6C20.88 43.6747 21.3067 40.2613 22.16 37.36C23.056 34.416 24.208 31.984 25.616 30.064C27.0667 28.1013 28.688 26.6507 30.48 25.712C32.272 24.7307 34.0853 24.24 35.92 24.24C36.944 24.24 37.8613 24.4107 38.672 24.752C39.5253 25.0933 40.2507 25.456 40.848 25.84C41.5307 26.3093 42.128 26.8427 42.64 27.44C42.9813 26.8 43.4293 26.2027 43.984 25.648C44.5813 25.0933 45.2 24.7307 45.84 24.56H46.8C46.7147 25.2 46.6507 25.84 46.608 26.48C46.5653 27.0773 46.5227 27.7173 46.48 28.4C46.48 29.04 46.48 29.68 46.48 30.32C46.48 31.0453 46.48 31.7707 46.48 32.496C46.5227 33.1787 46.5653 33.8187 46.608 34.416C46.6507 35.0987 46.7147 35.76 46.8 36.4H45.84C44.8587 32.8587 43.536 30.1707 41.872 28.336C40.2507 26.4587 38.48 25.52 36.56 25.52C35.3653 25.52 34.192 25.8613 33.04 26.544C31.888 27.2267 30.864 28.4213 29.968 30.128C29.072 31.792 28.3467 34.0533 27.792 36.912C27.2373 39.728 26.96 43.2907 26.96 47.6C26.96 51.9947 27.216 55.6427 27.728 58.544C28.2827 61.4027 28.9867 63.6853 29.84 65.392C30.6933 67.0987 31.6107 68.2933 32.592 68.976C33.616 69.6587 34.6187 70 35.6 70C36.5387 70 37.4773 69.744 38.416 69.232C39.3547 68.6773 40.1653 67.76 40.848 66.48C41.5733 65.1573 42.1493 63.408 42.576 61.232C43.0453 59.056 43.28 56.3253 43.28 53.04V49.52ZM63.785 68.72H75.305C75.305 66.928 75.6677 65.264 76.393 63.728C77.1183 62.192 78.0357 60.8693 79.145 59.76H79.785C79.6997 60.3147 79.6357 60.8907 79.593 61.488C79.5503 62 79.5077 62.5547 79.465 63.152C79.465 63.7493 79.465 64.3253 79.465 64.88C79.465 65.6907 79.465 66.416 79.465 67.056C79.5077 67.6533 79.5503 68.1867 79.593 68.656C79.6357 69.168 79.6997 69.616 79.785 70H54.505V69.36L58.345 68.4V26.8L54.505 25.84V25.2H67.625V25.84L63.785 26.8V68.72Z" fill="white"/>
</svg>
