<svg width="25" height="40" viewBox="0 0 25 40" fill="none" xmlns="http://www.w3.org/2000/svg">
<path d="M7.16888 4.75546C8.57783 4.17185 11.613 3.87147 11.613 3.87147C11.613 3.87147 4.96777 7.27283 5.03229 15.4844C5.0968 23.6961 11.613 27.0974 11.613 27.0974C11.613 27.0974 8.57783 26.797 7.16888 26.2134C5.75993 25.6298 4.47973 24.7744 3.40136 23.6961C2.323 22.6177 1.46759 21.3375 0.883985 19.9285C0.300379 18.5196 0 17.0095 0 15.4844C0 13.9594 0.300378 12.4493 0.883985 11.0403C1.46759 9.6314 2.323 8.3512 3.40136 7.27283C4.47972 6.19447 5.75993 5.33906 7.16888 4.75546Z" fill="black"/>
<path d="M16.7023 26.1789C15.2934 26.7625 12.2582 27.0629 12.2582 27.0629C12.2582 27.0629 18.9034 23.6615 18.8389 15.4499C18.7744 7.23828 12.2582 3.83691 12.2582 3.83691C12.2582 3.83691 15.2934 4.13729 16.7023 4.7209C18.1113 5.3045 19.3915 6.15991 20.4699 7.23827C21.5482 8.31664 22.4036 9.59684 22.9872 11.0058C23.5708 12.4147 23.8712 13.9248 23.8712 15.4499C23.8712 16.9749 23.5708 18.485 22.9872 19.894C22.4036 21.3029 21.5482 22.5831 20.4699 23.6615C19.3915 24.7399 18.1113 25.5953 16.7023 26.1789Z" fill="black"/>
<path d="M3.15882 31.0487C1.67795 30.8118 0.579053 29.5414 0.258199 29.0972C-0.0379742 33.3176 0.412326 35.0163 2.9298 36.7193C4.94377 38.0817 9.82692 37.8132 12.118 37.8132V31.3449C9.74866 31.3449 4.63968 31.2856 3.15882 31.0487Z" fill="black"/>
<path d="M21.0811 38.1132C22.5619 38.3502 23.679 39.556 23.9999 40.0002C24.2961 35.7798 23.5985 34.263 21.0811 32.56C19.0671 31.1976 14.195 31.3447 12.0436 31.3447V37.7939C14.413 37.7939 19.6002 37.8763 21.0811 38.1132Z" fill="black"/>
<circle cx="21.9356" cy="1.9355" r="1.9355" fill="black"/>
</svg>
