<svg width="40" height="40" viewBox="0 0 40 40" fill="none" xmlns="http://www.w3.org/2000/svg">
<circle cx="20" cy="20" r="20" fill="black"/>
<path fill-rule="evenodd" clip-rule="evenodd" d="M25.32 28.4822C25.5883 28.6722 25.9341 28.7197 26.2425 28.6031C26.5508 28.4856 26.7775 28.2223 26.8458 27.9031C27.5699 24.4998 29.3266 15.8859 29.9857 12.7901C30.0357 12.5568 29.9524 12.3143 29.769 12.1585C29.5857 12.0026 29.3316 11.9576 29.1049 12.0418C25.6108 13.3351 14.8502 17.3725 10.452 19C10.1728 19.1033 9.99117 19.3716 10.0003 19.6658C10.0103 19.9608 10.2087 20.2166 10.4945 20.3024C12.4669 20.8924 15.056 21.7132 15.056 21.7132C15.056 21.7132 16.266 25.3673 16.8968 27.2256C16.976 27.4589 17.1585 27.6423 17.3993 27.7056C17.6393 27.7681 17.896 27.7023 18.0751 27.5331C19.0885 26.5765 20.6551 25.0973 20.6551 25.0973C20.6551 25.0973 23.6317 27.2798 25.32 28.4822V28.4822ZM16.1452 21.2516L17.5443 25.8665L17.8552 22.944C17.8552 22.944 23.2609 18.0683 26.3425 15.2892C26.4325 15.2076 26.445 15.0709 26.37 14.9751C26.2958 14.8792 26.1591 14.8567 26.0566 14.9217C22.485 17.2025 16.1452 21.2516 16.1452 21.2516Z" fill="white"/>
</svg>
