<svg width="1440" height="13023" viewBox="0 0 1440 13023" fill="none" xmlns="http://www.w3.org/2000/svg">
<g clip-path="url(#clip0)">
<circle cx="1194" cy="570" r="302.5" stroke="#D0EDE0"/>
<circle cx="245" cy="1676" r="400" fill="#F6F8F6" fill-opacity="0.6"/>
<circle cx="242" cy="9233" r="400" fill="#F6F8F6" fill-opacity="0.6"/>
<circle cx="313" cy="12843" r="907" fill="#F6F8F6" fill-opacity="0.6"/>
<circle cx="202" cy="6355" r="400" fill="#F6F8F6" fill-opacity="0.6"/>
<circle cx="1174" cy="6886" r="296.5" stroke="#E98731" stroke-opacity="0.3"/>
<circle cx="96" cy="8120" r="388.5" stroke="#E98731" stroke-opacity="0.3"/>
<circle cx="1222" cy="2284" r="207.5" stroke="#D0EDE0"/>
<circle cx="1261" cy="9633" r="141.5" stroke="#D0EDE0"/>
<circle cx="1245" cy="138" r="25" fill="#DDF2E9" fill-opacity="0.9"/>
<circle cx="1329" cy="12512" r="25" fill="#DDF2E9" fill-opacity="0.9"/>
<circle cx="111" cy="11440" r="25" fill="#DDF2E9" fill-opacity="0.9"/>
<circle cx="1204" cy="9197" r="24" fill="#F6F8F6"/>
<circle cx="950" cy="10865" r="20" fill="#F6F8F6"/>
<circle cx="1295" cy="7949" r="67" fill="#D0EDE0" fill-opacity="0.5"/>
<circle cx="785" cy="704" r="15" fill="#D5EFE3" fill-opacity="0.8"/>
<circle cx="1046" cy="12920" r="15" fill="#D5EFE3" fill-opacity="0.8"/>
<circle cx="1014" cy="9103" r="15" fill="#D0EDE0"/>
<circle cx="1370" cy="6389" r="34" fill="#F6F8F6"/>
<circle cx="1285" cy="1796" r="15" fill="#D0EDE0"/>
<circle cx="1082" cy="1878" r="15" fill="#F6F8F6"/>
<circle cx="589" cy="626" r="12" fill="#F6F8F6"/>
<circle cx="232" cy="9270" r="12" fill="#F6F8F6"/>
<circle cx="1056" cy="7495" r="12" fill="#F6F8F6"/>
<circle cx="1180" cy="8738" r="246.5" stroke="#E98731" stroke-opacity="0.3"/>
<circle cx="1300" cy="1564" r="67" fill="#D0EDE0" fill-opacity="0.6"/>
<circle cx="1440" cy="10620" r="365" fill="#D0EDE0" fill-opacity="0.5"/>
<circle cx="1387" cy="11811" r="395.5" stroke="#E98731" stroke-opacity="0.3"/>
</g>
<defs>
<clipPath id="clip0">
<rect width="1440" height="13023" fill="white"/>
</clipPath>
</defs>
</svg>
