<svg width="18" height="18" viewBox="0 0 18 18" fill="none" xmlns="http://www.w3.org/2000/svg">
<path d="M5 9.52907L7.89499 12L12.9386 5" stroke="#E98731" stroke-width="1.2" stroke-miterlimit="10" stroke-linecap="round" stroke-linejoin="round"/>
<path d="M8.99923 1C8.63794 1 8.29385 1.0172 7.93256 1.06882C7.79493 1.08602 7.6917 1.22366 7.70891 1.36129C7.72611 1.49892 7.82934 1.58495 7.96697 1.58495C7.98418 1.58495 7.98418 1.58495 8.00138 1.58495C8.32826 1.53333 8.67235 1.51613 8.99923 1.51613C13.1283 1.51613 16.4831 4.87096 16.4831 8.99999C16.4831 13.129 13.1283 16.4838 8.99923 16.4838C8.67235 16.4838 8.32826 16.4666 8.00138 16.415C7.86375 16.3978 7.72611 16.5011 7.70891 16.6387C7.6917 16.7763 7.79493 16.914 7.93256 16.9312C8.27665 16.9828 8.63794 17 8.99923 17C13.4035 17 16.9992 13.4043 16.9992 8.99999C16.9992 4.59569 13.4035 1 8.99923 1Z" fill="#E98731" stroke="#E98731" stroke-width="0.4"/>
<path d="M1.74062 6.28265C1.77503 6.29986 1.80944 6.29986 1.84385 6.29986C1.94707 6.29986 2.0331 6.24824 2.08471 6.14502C2.32557 5.54287 2.65245 4.97513 3.06535 4.459C3.15137 4.33857 3.13417 4.18373 3.01374 4.09771C2.89331 4.01169 2.73847 4.02889 2.65245 4.14932C2.22234 4.69986 1.87826 5.31921 1.62019 5.95577C1.55138 6.0762 1.60299 6.23104 1.74062 6.28265Z" fill="#E98731" stroke="#E98731" stroke-width="0.4"/>
<path d="M2.08338 11.8555C2.03177 11.7179 1.87693 11.6663 1.7393 11.7179C1.60166 11.7695 1.55005 11.9243 1.60166 12.062C1.85973 12.6985 2.22102 13.3179 2.65112 13.8684C2.70274 13.9372 2.77155 13.9716 2.85758 13.9716C2.90919 13.9716 2.9608 13.9544 3.01241 13.92C3.13284 13.834 3.15005 13.6792 3.06403 13.5587C2.66833 13.0254 2.32424 12.4577 2.08338 11.8555Z" fill="#E98731" stroke="#E98731" stroke-width="0.4"/>
<path d="M1.51613 8.99998C1.51613 8.67309 1.53333 8.34621 1.58495 8.03654C1.60215 7.8989 1.49892 7.76127 1.36129 7.74406C1.20645 7.72686 1.08602 7.83008 1.06882 7.96772C1.0172 8.3118 1 8.65589 1 8.99998C1 9.34406 1.0172 9.70535 1.06882 10.0494C1.08602 10.1871 1.18925 10.2731 1.32688 10.2731C1.34409 10.2731 1.34409 10.2731 1.36129 10.2731C1.49892 10.2559 1.60215 10.1183 1.58495 9.98062C1.53333 9.65374 1.51613 9.32686 1.51613 8.99998Z" fill="#E98731" stroke="#E98731" stroke-width="0.4"/>
<path d="M6.12646 15.9162C5.52431 15.6582 4.95657 15.3313 4.44044 14.9356C4.32001 14.8496 4.16518 14.8668 4.07915 14.9872C3.99313 15.1076 4.01034 15.2625 4.13077 15.3485C4.6813 15.7786 5.28345 16.1227 5.93722 16.398C5.97162 16.4152 6.00603 16.4152 6.04044 16.4152C6.14367 16.4152 6.22969 16.3636 6.2813 16.2603C6.31571 16.1227 6.24689 15.9679 6.12646 15.9162Z" fill="#E98731" stroke="#E98731" stroke-width="0.4"/>
<path d="M4.26961 3.13322C4.32122 3.13322 4.37283 3.11601 4.42444 3.08161C4.94057 2.68591 5.50831 2.35903 6.11046 2.10096C6.2481 2.04935 6.29971 1.89451 6.2481 1.75688C6.19649 1.61924 6.04165 1.56763 5.90401 1.61924C5.26745 1.89451 4.6481 2.2386 4.09756 2.6687C3.97713 2.75472 3.95993 2.90956 4.04595 3.02999C4.11477 3.09881 4.20079 3.13322 4.26961 3.13322Z" fill="#E98731" stroke="#E98731" stroke-width="0.4"/>
</svg>
